<?xml version="1.0" encoding="utf-8"?>
<!-- Generator: Adobe Illustrator 19.2.0, SVG Export Plug-In . SVG Version: 6.00 Build 0)  -->
<svg version="1.1" id="Calque_1" xmlns="http://www.w3.org/2000/svg" xmlns:xlink="http://www.w3.org/1999/xlink" x="0px" y="0px"
	 viewBox="0 0 160 40" style="enable-background:new 0 0 160 40;" xml:space="preserve">
<style type="text/css">
	.st0{fill:#1D1D1B;}
</style>
<g>
	<rect x="9.4" y="16.6" transform="matrix(0.7071 -0.7071 0.7071 0.7071 -10.3836 14.9322)" class="st0" width="6.8" height="6.8"/>
	<rect x="143.8" y="16.6" transform="matrix(0.707 -0.7072 0.7072 0.707 28.9711 109.9327)" class="st0" width="6.8" height="6.8"/>
	<g>
		<path class="st0" d="M46.8,26c0,4.2-2.3,6.2-6.5,6.2h-6.2v-1.5h0.2c2.6-0.1,4.1-1.7,4.1-4.7V9.3h-3.7V7.8h12.2V26z"/>
		<path class="st0" d="M73.3,32.2h-8.9l-1.5-3.7h-7.1l-1.5,3.7h-1.6L63,7.3L73.3,32.2z M56.4,27.1h5.9l-3-7.1L56.4,27.1z"/>
		<path class="st0" d="M74.1,7.8H83l5,12.2l1.6-3.8l-3.5-8.4h8.9l5,12.2l5.1-12.2h1.6L96.5,32.7l-6.1-14.6l-6.1,14.6L74.1,7.8z"/>
		<path class="st0" d="M126.6,23.3c-0.1-1.2-0.5-2.2-1-2.9c-1.1-2.1-3.5-3.9-9.1-6.9c-3.3-1.8-1.6-3.3-1.3-3.7
			c0.1-0.1,0.2-0.1,0.2-0.1c1.7-1.1,5.3-0.2,6.5,0.3l0.5-1.4c-0.2-0.1-5.1-1.8-7.8-0.1c-1.1,0.7-2.2,1.6-2.6,3.3
			c-1.3,3.9-0.1,6.8-0.1,6.8c0.8,2.2,2.4,4.1,9.2,7.4c3.1,1.5,1.8,3.2,1.5,3.5c-1,0.7-2.3,1.2-3.8,1.3c-4.3,0.4-7.4-2.3-7.4-2.4
			l-1,1.1c0.1,0.1,3.1,2.8,7.4,2.8c0.4,0,0.7,0,1.1-0.1C124.1,31.6,127.1,28.2,126.6,23.3z"/>
	</g>
</g>
</svg>
