<?xml version="1.0" encoding="utf-8"?>
<!-- Generator: Adobe Illustrator 19.2.0, SVG Export Plug-In . SVG Version: 6.00 Build 0)  -->
<svg version="1.1" id="Calque_1" xmlns="http://www.w3.org/2000/svg" xmlns:xlink="http://www.w3.org/1999/xlink" x="0px" y="0px"
	 viewBox="0 0 192.3 210.5" style="enable-background:new 0 0 192.3 210.5;" xml:space="preserve">
<style type="text/css">
	.st0{fill:#FFFFFF;}
</style>
<g>
	<polygon class="st0" points="60.9,114.8 69.6,114.8 65.2,104.4 	"/>
	<path class="st0" d="M170.8,0H21.5L0,21.5v167.4l21.5,21.5h149.3l21.5-21.5V21.5L170.8,0z M96,41l5.4,5.4L96,51.9l-5.4-5.4L96,41z
		 M46.8,113.2c0,6.1-3.3,9.1-9.6,9.1h-9.1v-2.2h0.3c3.8-0.1,6-2.6,6-6.9V88.6H29v-2.2h17.9V113.2z M72.7,122.3l-2.3-5.4H60.1
		l-2.3,5.4h-2.4l15.2-36.7l15.2,36.7H72.7z M96,168l-5.4-5.4l5.4-5.4l5.4,5.4L96,168z M119.9,123.2l-8.9-21.5l-8.9,21.5L86.9,86.5
		h13.2l7.4,18l2.4-5.6l-5.1-12.3h13.2l7.4,18l7.5-18h2.4L119.9,123.2z M153,122.4c-0.6,0.1-1.1,0.1-1.6,0.1
		c-6.4,0-10.7-3.9-10.9-4.1l1.5-1.6c0,0,4.6,4.1,10.9,3.5c2.3-0.2,4.2-0.9,5.7-2c0.4-0.4,2.4-3-2.2-5.2c-10-4.9-12.3-7.6-13.6-10.9
		c0,0-1.8-4.3,0.2-10c0.6-2.4,2.2-3.8,3.8-4.8c4-2.5,11.2,0.1,11.5,0.2l-0.8,2.1c-1.8-0.7-7-2-9.5-0.4c-0.1,0.1-0.2,0.1-0.3,0.2
		c-0.6,0.5-3,2.8,1.9,5.4c8.2,4.3,11.8,7,13.4,10.1c0.8,1.1,1.3,2.5,1.5,4.3C164.9,116.5,160.6,121.5,153,122.4z"/>
</g>
</svg>
