<?xml version="1.0" encoding="utf-8"?>
<!-- Generator: Adobe Illustrator 19.2.0, SVG Export Plug-In . SVG Version: 6.00 Build 0)  -->
<svg version="1.1" id="Capa_1" xmlns="http://www.w3.org/2000/svg" xmlns:xlink="http://www.w3.org/1999/xlink" x="0px" y="0px"
	 viewBox="0 0 478.3 478.3" style="enable-background:new 0 0 478.3 478.3;" xml:space="preserve">
<style type="text/css">
	.st0{fill:#FFFFFF;}
</style>
<g>
	<path class="st0" d="M91.3,260.2l22.1,12.8c1.2,0.7,2.5,1,3.8,1c1.3,0,2.6-0.3,3.7-1c2.3-1.3,3.8-3.8,3.8-6.5l0-25.5
		c0-4.1-3.4-7.5-7.5-7.5c0,0,0,0,0,0c-4.1,0-7.5,3.4-7.5,7.5l0,12.5l-7.1-4.1l0-84.8l7.1,4.1v21.2c0,4.1,3.4,7.5,7.5,7.5
		s7.5-3.4,7.5-7.5v-25.5c0-2.7-1.4-5.2-3.8-6.5l-22.1-12.8c-2.3-1.3-5.2-1.3-7.5,0c-2.3,1.3-3.7,3.8-3.7,6.5l0,102.1
		C87.6,256.4,89,258.9,91.3,260.2z"/>
	<path class="st0" d="M135.5,285.8l22.1,12.8c1.2,0.7,2.5,1,3.8,1s2.6-0.3,3.8-1c2.3-1.3,3.8-3.8,3.8-6.5v-25.5
		c0-4.1-3.4-7.5-7.5-7.5s-7.5,3.4-7.5,7.5v12.5l-7.1-4.1v-97.8c0-4.1-3.4-7.5-7.5-7.5s-7.5,3.4-7.5,7.5v102.1
		C131.8,282,133.2,284.4,135.5,285.8z"/>
	<path class="st0" d="M179.8,311.3l22.1,12.8c1.2,0.7,2.5,1,3.8,1s2.6-0.3,3.8-1c2.3-1.3,3.8-3.8,3.8-6.5V215.4
		c0-2.7-1.4-5.2-3.8-6.5l-22.1-12.8c-2.3-1.3-5.2-1.3-7.5,0s-3.8,3.8-3.8,6.5v102.1C176,307.5,177.4,310,179.8,311.3z M191,215.7
		l7.1,4.1v84.8l-7.1-4.1V215.7z"/>
	<path class="st0" d="M224,336.8l22.1,12.8c1.2,0.7,2.5,1,3.8,1s2.6-0.3,3.8-1c2.3-1.3,3.8-3.8,3.8-6.5V292c0-2.7-1.4-5.2-3.7-6.5
		l-18.3-10.6v-33.7l7.1,4.1v21.2c0,4.1,3.4,7.5,7.5,7.5s7.5-3.4,7.5-7.5V241c0-2.7-1.4-5.2-3.7-6.5l-22.1-12.8
		c-2.3-1.3-5.2-1.3-7.5,0s-3.8,3.8-3.8,6.5v51.1c0,2.7,1.4,5.2,3.7,6.5l18.3,10.6v33.7l-7.1-4.1l0-21.2c0-4.1-3.4-7.5-7.5-7.5
		c0,0,0,0,0,0c-4.1,0-7.5,3.4-7.5,7.5l0,25.5C220.2,333,221.6,335.5,224,336.8z"/>
	<path class="st0" d="M268.2,362.4l22.1,12.8c1.2,0.7,2.5,1,3.7,1c2.6,0,5.1-1.3,6.5-3.8c2.1-3.6,0.8-8.2-2.7-10.2l-18.4-10.6v-33.8
		l10.9,6.3c1.2,0.7,2.5,1,3.7,1c2.6,0,5.1-1.3,6.5-3.7c2.1-3.6,0.8-8.2-2.7-10.2l-18.4-10.6v-33.7l10.9,6.3
		c3.6,2.1,8.2,0.8,10.2-2.8c2.1-3.6,0.8-8.2-2.8-10.2l-22.1-12.7c-2.3-1.3-5.2-1.3-7.5,0c-2.3,1.3-3.7,3.8-3.7,6.5v102.1
		C264.5,358.6,265.9,361,268.2,362.4z"/>
	<path class="st0" d="M316.2,388.9c0.2,0,0.5,0,0.7,0c16.5-1.6,28.9-15.2,28.9-31.8v-21.2c0-22.9-8.6-44.8-24.1-61.7
		c-2.1-2.3-5.4-3-8.2-1.9c-2.9,1.1-4.8,3.9-4.8,7v102.1c0,2.1,0.9,4.1,2.5,5.5C312.5,388.2,314.3,388.9,316.2,388.9z M323.7,303.8
		c4.7,10,7.1,20.9,7.1,32.1v21.2c0,5.7-2.8,10.7-7.1,13.8V303.8z"/>
	<path class="st0" d="M434.2,241c0-2.7-1.4-5.2-3.8-6.5l-67-38.7L245.2,3.6c-2-3.2-6.1-4.5-9.6-2.9L119.8,55.1L98.8,43
		c-2.3-1.3-5.2-1.3-7.5,0l-44,25.9c-2,1.4-3.2,3.7-3.2,6.1v203.8c0,2.7,1.4,5.1,3.7,6.5l331,191.9c1.2,0.7,2.5,1,3.8,1
		c1.3,0,2.6-0.3,3.7-1c0,0,0,0,0,0l0,0l44.2-25.5c2.3-1.3,3.7-3.8,3.7-6.5L434.2,241L434.2,241L434.2,241z M235.9,17.1L336.2,180
		L135.6,64.3L235.9,17.1z M375,457.8L59,274.5V88l316,182.8V457.8z M66.2,74.8l28.9-16.7l8.2,4.7l-11.4,5.4c-3.7,1.8-5.4,6.2-3.6,10
		c1.8,3.7,6.2,5.4,10,3.6l20.8-9.8l233.6,134.9l23.4,38c1.4,2.3,3.9,3.6,6.4,3.6c1.3,0,2.7-0.4,3.9-1.1c3.5-2.2,4.6-6.8,2.5-10.3
		l-8.8-14.4l31.7,18.3l-29.2,16.9L66.2,74.8z M390,457.8V270.9l29.2-16.9l0,186.9L390,457.8z"/>
</g>
</svg>
