<?xml version="1.0" encoding="utf-8"?>
<!-- Generator: Adobe Illustrator 19.2.0, SVG Export Plug-In . SVG Version: 6.00 Build 0)  -->
<svg version="1.1" id="Capa_1" xmlns="http://www.w3.org/2000/svg" xmlns:xlink="http://www.w3.org/1999/xlink" x="0px" y="0px"
	 viewBox="0 0 612 612" style="enable-background:new 0 0 612 612;" xml:space="preserve">
<style type="text/css">
	.st0{fill:#FFFFFF;}
</style>
<g>
	<g id="Shape_6">
		<g>
			<path class="st0" d="M216.4,267.5c-20.6,0-37.3,16.7-37.3,37.3c0,20.6,16.7,37.3,37.3,37.3s37.3-16.7,37.3-37.3
				C253.8,284.2,237.1,267.5,216.4,267.5z M335.9,267.5c-20.6,0-37.3,16.7-37.3,37.3c0,20.6,16.7,37.3,37.3,37.3
				s37.3-16.7,37.3-37.3C373.2,284.2,356.5,267.5,335.9,267.5z M328.4,13.8c-156.6,0-283.6,127-283.6,283.6
				c0,86.5,38.9,163.9,100,215.9C131.6,532.2,88.1,583.7,0,595.9c146.4,11.4,195.1-22.1,215.6-38.4c34.6,15,72.7,23.4,112.8,23.4
				C485,581,612,454,612,297.4S485,13.8,328.4,13.8z M328.4,551.1c-140.1,0-253.8-113.6-253.8-253.8S188.2,43.6,328.4,43.6
				c140.1,0,253.8,113.6,253.8,253.8S468.5,551.1,328.4,551.1z M455.3,267.5c-20.6,0-37.3,16.7-37.3,37.3
				c0,20.6,16.7,37.3,37.3,37.3c20.6,0,37.3-16.7,37.3-37.3C492.6,284.2,475.9,267.5,455.3,267.5z"/>
		</g>
	</g>
</g>
</svg>
