<?xml version="1.0" encoding="utf-8"?>
<!-- Generator: Adobe Illustrator 19.2.0, SVG Export Plug-In . SVG Version: 6.00 Build 0)  -->
<svg version="1.1" id="Capa_1" xmlns="http://www.w3.org/2000/svg" xmlns:xlink="http://www.w3.org/1999/xlink" x="0px" y="0px"
	 viewBox="0 0 98.4 98.4" style="enable-background:new 0 0 98.4 98.4;" xml:space="preserve">
<style type="text/css">
	.st0{fill:#FFFFFF;}
</style>
<g>
	<path class="st0" d="M85.7,4.2H72.3c0-2.5-1.7-4.2-4.2-4.2c-2.5,0-4.2,1.7-4.2,4.2H51.3c0-2.5-1.7-4.2-4.2-4.2s-4.2,1.7-4.2,4.2
		h-8.4c0-2.5-1.7-4.2-4.2-4.2s-4.2,1.7-4.2,4.2H12.7C6.4,4.2,0.9,9.7,0.9,16.4V77c0,6.3,5,11.4,11.8,11.4h9.2c1.3,0,2.1-0.4,2.9-1.3
		c5.9,6.7,14.7,11.4,24.8,11.4c9.2,0,17.6-3.8,23.5-10.1h12.6c6.7,0,11.8-5,11.8-11.4V16.4C97.5,9.7,92,4.2,85.7,4.2z M49.6,90
		c-13.4,0-24.4-10.9-24.4-24.4s10.9-24.4,24.4-24.4c8.8,0,16.4,4.6,20.6,11.4c-1.7-0.8-3.8-0.8-5,0.4L46.3,71.9L33.7,59.3
		c-1.7-1.7-4.2-1.7-5.9,0s-1.7,4.2,0,5.9l15.5,15.6c0.8,0.8,2.1,1.3,2.9,1.3s2.1-0.4,2.9-1.3L71,58.9c0.8-0.8,1.3-1.7,1.3-2.5
		c1.3,2.9,1.7,5.9,1.7,9.3C74,79.1,63.1,90,49.6,90z M89.1,77c0,2.1-1.7,2.9-3.4,2.9H79c2.1-4.2,3.4-9.3,3.4-14.3
		c0-18.1-14.7-32.8-32.8-32.8S16.9,47.5,16.9,65.6c0,5,1.3,10.1,3.4,14.3h-7.6c-1.7,0-3.4-0.8-3.4-2.9V16.4c0-2.1,1.7-3.8,3.4-3.8
		h13.4v4.2c0,2.5,1.7,4.2,4.2,4.2s4.2-1.7,4.2-4.2v-4.2h8.4v4.2c0,2.5,1.7,4.2,4.2,4.2s4.2-1.7,4.2-4.2v-4.2h12.6v4.2
		c0,2.5,1.7,4.2,4.2,4.2s4.2-1.7,4.2-4.2v-4.2h13.4c1.7,0,3.4,1.7,3.4,3.8V77z"/>
</g>
</svg>
