<?xml version="1.0" encoding="utf-8"?>
<!-- Generator: Adobe Illustrator 19.2.0, SVG Export Plug-In . SVG Version: 6.00 Build 0)  -->
<svg version="1.1" id="Capa_1" xmlns="http://www.w3.org/2000/svg" xmlns:xlink="http://www.w3.org/1999/xlink" x="0px" y="0px"
	 viewBox="0 0 512 512" style="enable-background:new 0 0 512 512;" xml:space="preserve">
<style type="text/css">
	.st0{fill:#FFFFFF;}
</style>
<g>
	<path class="st0" d="M0,208c0,29.8,20.4,54.6,48,61.8V480H16c-8.8,0-16,7.2-16,16s7.2,16,16,16h480c8.9,0,16-7.2,16-16
		s-7.1-16-16-16h-32V269.8c27.6-7.2,48-32,48-61.8v-16H0V208z M320,272c35.4,0,64-28.7,64-64c0,29.8,20.4,54.6,48,61.8V480H192V272
		c35.4,0,64-28.7,64-64C256,243.3,284.7,272,320,272z M176,269.8V480H80V269.8c27.6-7.2,48-32,48-61.8
		C128,237.8,148.4,262.6,176,269.8z M448,48H64L0,176h512L448,48z M135.2,83.6l-32,64c-1.4,2.8-4.2,4.4-7.2,4.4
		c-1.2,0-2.4-0.2-3.6-0.8c-3.9-2-5.6-6.8-3.6-10.7l32-64c2-3.9,6.8-5.5,10.7-3.6C135.6,74.8,137.1,79.6,135.2,83.6z M199.2,83.6
		l-32,64c-1.4,2.8-4.2,4.4-7.2,4.4c-1.2,0-2.4-0.2-3.6-0.8c-3.9-2-5.6-6.8-3.6-10.7l32-64c2-3.9,6.8-5.5,10.7-3.6
		C199.6,74.8,201.1,79.6,199.2,83.6z M264,144c0,4.4-3.6,8-8,8c-4.4,0-8-3.6-8-8V80c0-4.4,3.6-8,8-8c4.4,0,8,3.6,8,8V144z
		 M355.9,151c-1.2,0.7-2.6,1-3.9,1c-2.8,0-5.6-1.5-7-4.2l-35-64c-2.1-3.9-0.7-8.8,3.2-10.8c3.8-2.1,8.8-0.8,10.9,3.2l35,64
		C361.1,144,359.8,148.9,355.9,151z M419.6,151.2c-1.1,0.6-2.3,0.8-3.6,0.8c-2.9,0-5.8-1.6-7.1-4.4l-32-64c-2-3.9-0.4-8.8,3.6-10.7
		c3.9-2,8.8-0.4,10.8,3.6l32,64C425.1,144.4,423.6,149.2,419.6,151.2z M136,386.4v-36.9c-4.7-2.8-8-7.7-8-13.6c0-8.8,7.2-16,16-16
		c8.9,0,16,7.2,16,16c0,5.9-3.3,10.8-8,13.6v36.9c4.7,2.8,8,7.7,8,13.6c0,8.8-7.1,16-16,16c-8.8,0-16-7.2-16-16
		C128,394.1,131.3,389.2,136,386.4z M64,16c0-8.8,7.2-16,16-16h352c8.9,0,16,7.2,16,16s-7.1,16-16,16H80C71.2,32,64,24.8,64,16z
		 M280.4,357.7l-11.3-11.3l45.2-45.2l11.3,11.3L280.4,357.7z M280.4,402.9l-11.3-11.3l90.5-90.5l11.3,11.3L280.4,402.9z
		 M359.6,346.3l11.3,11.3l-45.2,45.2l-11.3-11.3L359.6,346.3z"/>
</g>
</svg>
