<?xml version="1.0" encoding="utf-8"?>
<!-- Generator: Adobe Illustrator 19.2.0, SVG Export Plug-In . SVG Version: 6.00 Build 0)  -->
<svg version="1.1" id="Calque_1" xmlns="http://www.w3.org/2000/svg" xmlns:xlink="http://www.w3.org/1999/xlink" x="0px" y="0px"
	 viewBox="0 0 192.3 210.5" style="enable-background:new 0 0 192.3 210.5;" xml:space="preserve">
<style type="text/css">
	.st0{fill:#FFFFFF;}
</style>
<g>
	<polygon class="st0" points="21.5,0 0,21.5 0,188.9 21.5,210.5 170.8,210.5 192.3,188.9 192.3,21.5 170.8,0 	"/>
	<g>
		<rect x="92.2" y="42.6" transform="matrix(0.7071 -0.7071 0.7071 0.7071 -4.7289 81.5275)" width="7.7" height="7.7"/>
		<rect x="92.2" y="158.7" transform="matrix(0.7071 -0.7071 0.7071 0.7071 -86.8331 115.5291)" width="7.7" height="7.7"/>
		<g>
			<path d="M46.8,113.2c0,6.1-3.3,9.1-9.6,9.1h-9.1v-2.2h0.3c3.8-0.1,6-2.6,6-6.9V88.6H29v-2.2h17.9V113.2z"/>
			<path d="M85.9,122.3H72.7l-2.3-5.4H60.1l-2.3,5.4h-2.4l15.2-36.7L85.9,122.3z M60.9,114.8h8.7l-4.4-10.4L60.9,114.8z"/>
			<path d="M86.9,86.5h13.2l7.4,18l2.4-5.6l-5.1-12.3h13.2l7.4,18l7.5-18h2.4l-15.2,36.7l-8.9-21.5l-8.9,21.5L86.9,86.5z"/>
			<path d="M164.1,109.2c-0.2-1.8-0.7-3.2-1.5-4.3c-1.6-3.1-5.2-5.8-13.4-10.1c-4.9-2.6-2.4-4.9-1.9-5.4c0.1-0.1,0.2-0.1,0.3-0.2
				c2.5-1.6,7.7-0.3,9.5,0.4l0.8-2.1c-0.3-0.1-7.5-2.7-11.5-0.2c-1.6,1-3.2,2.4-3.8,4.8c-1.9,5.7-0.2,10-0.2,10
				c1.2,3.2,3.6,6,13.6,10.9c4.6,2.2,2.6,4.8,2.2,5.2c-1.5,1-3.4,1.7-5.7,2c-6.3,0.7-10.8-3.4-10.9-3.5l-1.5,1.6
				c0.2,0.2,4.6,4.1,10.9,4.1c0.5,0,1.1,0,1.6-0.1C160.6,121.5,164.9,116.5,164.1,109.2z"/>
		</g>
	</g>
</g>
</svg>
